<?xml version="1.0" encoding="utf-8"?>
<!-- Generator: Adobe Illustrator 19.2.1, SVG Export Plug-In . SVG Version: 6.00 Build 0)  -->
<svg version="1.1" id="图层_1" xmlns="http://www.w3.org/2000/svg" xmlns:xlink="http://www.w3.org/1999/xlink" x="0px" y="0px"
	 viewBox="0 0 82 82" style="enable-background:new 0 0 82 82;" xml:space="preserve">
<path d="M54.2,38.4l-0.9-0.3l0.7-0.6c5-4,8-10.2,8-16.5C62,9.4,52.6,0,41,0C29.4,0,20,9.4,20,21c0,6.4,2.9,12.4,8,16.5l0.7,0.6
	l-0.9,0.3C12.3,42.9,1.5,57.2,1.5,73.3c0,4.8,3.9,8.7,8.7,8.7h61.5c4.8,0,8.7-3.9,8.7-8.7C80.5,57.2,69.7,42.9,54.2,38.4z M25.1,21
	c0-8.8,7.1-15.9,15.9-15.9S56.9,12.3,56.9,21S49.8,36.9,41,36.9S25.1,29.8,25.1,21z M71.7,76.9H10.3c-2,0-3.6-1.6-3.6-3.6
	c0-17.2,14-31.2,31.2-31.2h6.1c17.2,0,31.2,14,31.2,31.2C75.3,75.3,73.7,76.9,71.7,76.9z"/>
<path d="M54.7,53c-0.9-0.9-2.4-0.9-3.3,0L38.8,65.4l-6.2-6c-0.9-0.9-2.4-0.9-3.3,0c-0.4,0.4-0.7,1-0.7,1.6c0,0.6,0.2,1.2,0.7,1.6
	l7.8,7.6c0.4,0.4,1,0.7,1.6,0.7c0.6,0,1.2-0.2,1.6-0.7l14.3-14c0.4-0.4,0.7-1,0.7-1.6C55.4,54,55.2,53.5,54.7,53z"/>
</svg>
